<?xml version="1.0" standalone="no"?>
<!DOCTYPE svg PUBLIC "-//W3C//DTD SVG 20010904//EN"
 "http://www.w3.org/TR/2001/REC-SVG-20010904/DTD/svg10.dtd">
<svg version="1.0" xmlns="http://www.w3.org/2000/svg"
 width="2193.000000pt" height="2193.000000pt" viewBox="0 0 2193.000000 2193.000000"
 preserveAspectRatio="xMidYMid meet">
<metadata>
Created by potrace 1.11, written by Peter Selinger 2001-2013
</metadata>
<g transform="translate(0.000000,2193.000000) scale(0.100000,-0.100000)"
fill="#000000" stroke="none">
<path d="M10375 16914 c-27 -2 -122 -8 -210 -14 -1692 -114 -3401 -696 -4835
-1645 -299 -197 -770 -555 -770 -584 0 -5 187 -125 416 -266 229 -142 424
-265 435 -274 11 -10 81 -194 179 -471 89 -250 163 -456 165 -458 2 -3 64 40
137 94 434 322 1041 679 1588 934 1010 471 1995 748 3036 851 267 26 912 37
1185 20 1016 -65 1945 -318 2824 -770 567 -292 1107 -669 1491 -1043 66 -65
123 -118 125 -118 3 0 92 222 199 493 l194 494 418 253 c230 139 418 257 418
260 0 19 -369 290 -625 458 -1303 858 -2876 1461 -4400 1686 -525 78 -806 98
-1410 101 -280 1 -532 1 -560 -1z m298 -722 c79 -39 148 -106 184 -180 25 -52
28 -67 28 -167 0 -104 -2 -113 -31 -170 -39 -74 -116 -148 -192 -183 -51 -24
-68 -27 -172 -27 -103 0 -121 3 -170 26 -121 57 -204 169 -219 294 -20 172 44
309 185 391 72 42 127 54 231 50 79 -3 102 -8 156 -34z m588 28 c30 0 55 -6
69 -18 22 -18 23 -25 21 -140 -2 -136 8 -171 59 -197 39 -20 143 -18 200 3 52
20 57 33 59 158 0 45 4 102 7 128 l7 46 58 0 c32 0 61 -4 64 -10 3 -5 -2 -172
-12 -370 l-17 -360 -68 0 -68 0 5 98 c3 53 8 125 11 160 2 34 3 62 1 62 -3 0
-26 -10 -53 -22 -63 -28 -208 -31 -269 -4 -90 39 -109 76 -115 231 l-5 120
-37 3 -38 3 0 61 0 61 38 -7 c20 -3 58 -6 83 -6z m979 -65 c65 -9 101 -25 110
-50 5 -14 2 -69 -9 -144 -10 -67 -15 -124 -11 -126 7 -4 341 -55 363 -55 10 0
20 40 36 147 12 81 23 148 24 150 4 4 119 -15 124 -21 3 -3 -14 -138 -38 -301
-42 -290 -43 -298 -24 -311 10 -8 30 -14 43 -14 24 0 24 -2 18 -52 -4 -29 -9
-55 -12 -57 -10 -10 -169 20 -186 36 -23 20 -23 68 -3 205 9 55 14 102 13 104
-9 8 -372 54 -378 47 -4 -4 -15 -62 -24 -128 -9 -66 -19 -133 -22 -149 l-6
-28 -61 7 c-34 3 -63 8 -65 10 -2 2 16 139 40 305 47 328 47 320 -14 320 -31
0 -33 11 -22 83 6 34 9 38 33 33 14 -3 46 -8 71 -11z m-2547 -33 c12 -13 28
-94 56 -289 21 -150 42 -277 46 -283 5 -8 22 -10 46 -7 43 6 45 2 51 -73 3
-34 2 -35 -42 -42 -81 -12 -147 -9 -164 8 -20 20 -19 14 -62 314 -19 140 -39
259 -44 263 -4 5 -51 3 -104 -4 l-97 -13 8 -90 c11 -124 8 -274 -7 -338 -18
-78 -68 -167 -113 -199 -37 -27 -93 -46 -103 -36 -3 3 -7 29 -10 58 -5 52 -4
55 28 74 24 15 40 37 57 80 21 53 25 76 25 195 1 74 -3 157 -7 183 l-8 48 -47
-2 -47 -3 -8 53 c-4 30 -6 55 -5 56 9 6 433 63 479 64 42 1 60 -3 72 -17z
m-1994 -71 c16 -50 13 -92 -8 -125 -11 -16 -75 -79 -142 -140 -148 -133 -180
-183 -178 -280 1 -33 4 -72 8 -86 7 -23 9 -22 29 24 34 76 64 109 134 146 53
29 76 35 144 38 72 4 89 1 136 -20 122 -56 200 -188 200 -336 -1 -155 -93
-274 -250 -322 -227 -70 -388 46 -488 350 -24 73 -28 102 -28 205 -1 115 0
122 29 175 18 33 67 90 125 145 52 49 110 105 128 123 31 29 34 37 29 72 l-5
39 57 19 c31 11 59 17 62 13 4 -3 11 -21 18 -40z m1160 -81 c6 -28 11 -52 11
-54 0 -2 -9 -6 -20 -9 -11 -3 -24 -16 -29 -29 -5 -12 -37 -205 -71 -427 -33
-222 -67 -419 -75 -437 -39 -94 -126 -154 -222 -154 -62 0 -137 26 -129 46 3
7 10 31 16 53 l10 39 39 -15 c102 -40 173 27 195 182 6 39 2 45 -179 290 -102
138 -196 260 -210 272 -14 12 -32 19 -43 16 -15 -3 -21 2 -25 25 -3 16 -9 41
-12 55 -6 23 -3 27 32 36 42 12 93 14 117 5 14 -6 270 -364 327 -459 l24 -40
36 290 c20 160 41 300 47 312 11 19 40 33 97 46 49 11 53 8 64 -43z m4766 -60
c75 -29 148 -98 164 -155 18 -65 13 -102 -34 -294 -25 -100 -45 -193 -45 -206
0 -20 7 -26 40 -35 43 -12 42 -8 20 -90 -8 -29 -30 -30 -115 -5 -77 22 -89 37
-82 103 l6 55 -27 -26 c-112 -107 -327 -82 -407 47 -68 112 -21 261 99 311 62
26 168 30 276 10 139 -25 133 -26 141 20 17 92 -27 153 -128 181 -82 23 -124
12 -138 -34 -6 -22 -14 -31 -25 -27 -8 2 -36 9 -61 15 l-47 12 10 36 c25 100
48 114 188 109 79 -3 120 -9 165 -27z m1016 -330 l207 -73 -15 -46 c-21 -62
-25 -65 -68 -47 -21 9 -40 15 -42 12 -2 -2 -48 -129 -103 -282 -55 -153 -101
-283 -104 -290 -6 -16 -126 22 -126 39 0 7 18 61 40 121 22 61 40 115 40 121
0 7 -26 20 -59 30 -67 20 -61 22 -187 -65 -139 -98 -153 -103 -238 -74 -30 10
-45 21 -42 29 2 7 10 31 17 54 12 40 13 41 51 35 35 -6 47 -1 123 50 47 31 89
56 95 56 18 0 11 16 -21 46 -45 42 -59 76 -59 139 0 95 44 168 125 207 69 32
133 22 366 -62z m-8195 -568 c48 -25 98 -79 119 -129 25 -60 20 -152 -13 -214
-94 -181 -353 -181 -444 0 -32 62 -38 158 -14 215 27 65 92 123 166 147 41 14
142 3 186 -19z m9226 18 c58 -16 119 -69 151 -130 25 -49 28 -63 25 -126 -3
-58 -9 -80 -33 -120 -36 -57 -113 -108 -178 -118 -96 -15 -199 32 -254 116
-22 33 -28 55 -31 114 -5 88 9 134 57 187 66 74 167 103 263 77z"/>
<path d="M10428 16106 c-91 -25 -164 -98 -189 -190 -26 -97 15 -226 92 -287
105 -83 235 -78 334 12 65 60 87 111 87 200 0 183 -157 312 -324 265z"/>
<path d="M7590 15497 c-47 -15 -116 -86 -129 -133 -32 -114 22 -244 120 -294
80 -41 194 -18 256 53 52 59 64 126 38 213 -40 136 -156 202 -285 161z"/>
<path d="M13325 15526 c-92 -41 -99 -163 -12 -216 77 -47 166 -30 240 46 38
39 81 133 68 147 -13 13 -144 37 -206 36 -33 0 -73 -6 -90 -13z"/>
<path d="M14365 15546 c-95 -43 -119 -160 -48 -228 16 -15 65 -40 109 -57 l82
-30 42 122 c24 67 45 127 47 133 4 12 -111 59 -168 68 -20 3 -47 0 -64 -8z"/>
<path d="M9770 14639 c-649 -73 -1233 -426 -1580 -954 -74 -113 -172 -320
-218 -460 -103 -311 -139 -561 -129 -900 12 -407 82 -728 230 -1060 61 -137
127 -252 262 -456 l123 -186 -57 -18 c-149 -46 -258 -131 -307 -238 -26 -57
-29 -71 -29 -177 0 -97 4 -124 24 -173 61 -153 258 -274 410 -252 57 8 409 96
550 136 133 39 216 40 298 6 32 -14 129 -57 217 -97 280 -127 500 -190 856
-245 394 -61 750 -57 1175 15 357 61 630 153 926 313 91 48 115 57 159 57 28
0 185 -27 348 -60 402 -81 472 -89 554 -66 116 32 216 116 266 224 24 52 27
68 27 172 -1 142 -22 203 -97 285 -55 60 -121 96 -250 135 -55 16 -78 28 -78
39 0 9 27 54 60 100 215 300 380 665 483 1066 120 469 127 826 22 1229 -104
399 -326 747 -640 1000 -416 337 -926 516 -1468 516 -263 0 -450 -30 -692
-112 -188 -63 -207 -62 -373 16 -145 68 -253 100 -430 127 -158 24 -504 34
-642 18z m2075 -179 c25 -6 26 -8 7 -9 -99 -5 -300 -66 -452 -137 -109 -51
-117 -53 -153 -42 -72 22 -39 56 100 102 220 74 413 108 498 86z m-2495 -84
c0 -2 -53 -29 -117 -61 -362 -177 -613 -393 -816 -700 -152 -231 -271 -552
-322 -868 -52 -327 -30 -751 56 -1039 29 -98 168 -426 274 -646 30 -63 55
-115 55 -118 0 -2 -6 -4 -13 -4 -12 0 -109 144 -169 250 -78 137 -171 368
-222 553 -83 299 -91 350 -91 647 0 287 13 400 71 627 90 357 295 701 575 967
110 105 325 256 444 312 78 37 275 95 275 80z m1255 -493 c141 -34 300 -137
439 -283 150 -159 238 -314 294 -519 24 -90 26 -111 26 -316 0 -202 -2 -230
-27 -348 -59 -277 -196 -607 -252 -607 -20 0 -35 33 -28 61 4 13 21 43 39 66
102 134 166 381 180 694 11 261 -16 469 -82 636 -102 258 -330 478 -613 590
-129 51 -132 53 -81 47 25 -4 72 -13 105 -21z m-379 -84 c24 -6 44 -13 44 -15
0 -3 -22 -48 -49 -102 -271 -541 -323 -1101 -156 -1676 42 -145 92 -271 178
-449 l81 -168 -24 -17 c-95 -70 -324 -207 -470 -280 -152 -77 -420 -192 -447
-192 -5 0 -48 36 -95 80 -542 503 -754 1287 -529 1960 35 102 85 206 146 301
184 285 513 490 890 553 99 17 371 20 431 5z m1989 -74 c245 -55 489 -172 645
-310 178 -157 316 -381 373 -604 18 -73 22 -113 21 -271 0 -169 -3 -198 -32
-339 -77 -368 -240 -734 -448 -1011 -75 -100 -264 -290 -288 -290 -44 0 -403
143 -577 230 -178 89 -369 219 -369 250 0 4 45 84 101 176 143 240 199 364
258 570 57 196 75 336 75 574 1 132 -4 246 -12 295 -40 245 -112 484 -193 647
-27 54 -49 101 -49 104 0 13 424 -5 495 -21z m450 -5 c338 -134 521 -293 665
-574 89 -175 119 -307 127 -547 12 -372 -40 -622 -197 -944 -119 -245 -313
-525 -364 -525 -3 0 36 71 86 158 266 459 358 713 389 1075 9 107 9 172 0 280
-28 342 -120 563 -316 762 -105 106 -208 177 -392 269 -73 36 -133 68 -133 71
0 14 68 1 135 -25z m-2197 8 c22 -22 12 -63 -63 -248 -142 -349 -173 -476
-182 -740 -8 -258 26 -482 118 -782 117 -382 209 -539 464 -793 280 -280 680
-559 1160 -812 66 -34 116 -63 111 -63 -13 0 -644 323 -756 388 -595 342
-1008 928 -1175 1668 -82 362 -10 800 210 1279 51 111 79 137 113 103z m597
-577 c47 -113 66 -214 72 -386 9 -269 -40 -477 -156 -662 -14 -24 -29 -43 -32
-43 -14 0 -73 152 -102 260 -30 112 -31 121 -31 340 -1 201 1 234 21 313 27
104 72 215 114 282 l31 49 28 -47 c16 -25 41 -73 55 -106z m-625 -1945 c0 -13
-259 -167 -429 -255 -184 -95 -336 -161 -563 -244 -267 -99 -368 -129 -409
-125 l-34 4 30 8 c17 4 134 48 260 98 352 138 679 303 995 501 l105 66 22 -21
c13 -12 23 -26 23 -32z m998 -796 c-64 -35 -339 -65 -518 -56 -175 9 -521 53
-536 69 -2 2 114 78 257 169 l261 165 275 -170 c178 -110 270 -173 261 -177z
m-1856 -368 c185 -113 351 -190 568 -264 133 -45 140 -48 85 -43 -187 20 -379
81 -623 201 l-174 85 37 29 c21 17 39 30 41 30 2 0 32 -17 66 -38z"/>
<path d="M1306 12733 c-4 -65 -10 -135 -13 -156 l-6 -38 99 3 99 3 3 30 c1 17
5 40 7 53 l5 22 3109 0 3108 0 7 90 c4 50 4 95 1 100 -4 7 -1158 10 -3209 10
l-3203 0 -7 -117z"/>
<path d="M14214 12837 c-3 -8 -4 -52 -2 -98 l3 -84 3106 -3 3107 -2 6 -31 c3
-17 6 -42 6 -55 0 -24 1 -24 101 -24 100 0 101 0 95 23 -3 12 -9 82 -13 155
l-6 132 -3199 0 c-2657 0 -3199 -2 -3204 -13z"/>
<path d="M940 12394 c-205 -44 -394 -212 -469 -417 l-26 -72 0 -2975 0 -2975
26 -72 c77 -209 265 -375 476 -418 63 -13 1261 -15 10050 -13 l9978 3 73 27
c107 39 177 84 257 164 82 82 136 177 165 290 20 76 20 124 20 2994 0 2870 0
2918 -20 2994 -29 113 -83 208 -165 290 -80 80 -150 125 -257 164 l-73 27
-3381 3 -3382 2 -8 -92 -9 -93 3370 -5 3370 -5 60 -23 c127 -48 226 -144 277
-270 l23 -57 3 -2900 c3 -3201 7 -2978 -59 -3094 -68 -118 -190 -201 -325
-221 -95 -13 -19802 -13 -19899 0 -183 26 -336 169 -374 348 -16 76 -16 5788
0 5864 38 177 189 319 369 348 43 6 1179 10 3388 10 l3322 0 0 43 c0 23 -3 66
-6 95 l-7 52 -3351 -1 c-2828 0 -3361 -3 -3416 -15z"/>
<path d="M1067 12028 c-56 -78 -184 -207 -254 -255 l-53 -36 0 -109 c0 -74 4
-108 11 -108 19 0 168 103 246 170 39 34 100 94 133 133 74 86 182 246 174
258 -3 5 -52 9 -109 9 l-103 0 -45 -62z"/>
<path d="M20600 12083 c0 -4 18 -36 39 -72 57 -95 161 -220 247 -298 81 -73
249 -193 271 -193 10 0 13 25 13 108 l0 107 -57 40 c-74 52 -208 186 -257 258
l-39 57 -109 0 c-59 0 -108 -3 -108 -7z"/>
<path d="M122 11543 l-122 -4 0 -2609 0 -2610 109 0 c59 0 129 -3 155 -6 l46
-7 0 96 c0 107 3 103 -80 109 l-35 3 0 2415 0 2415 35 3 c83 6 80 2 80 107 l0
95 -32 -2 c-18 -1 -88 -4 -156 -5z"/>
<path d="M21620 11457 c0 -107 -3 -103 80 -109 l35 -3 0 -2415 0 -2415 -35 -3
c-83 -6 -80 -2 -80 -109 l0 -96 46 7 c26 3 96 6 155 6 l109 0 0 2610 0 2610
-109 0 c-59 0 -129 3 -155 6 l-46 7 0 -96z"/>
<path d="M5847 10490 c-1170 -81 -2130 -150 -2134 -154 -3 -3 2 -6 13 -6 10 0
962 -65 2114 -144 1152 -80 2096 -143 2097 -142 2 1 -4 36 -13 77 -18 85 -14
195 10 275 22 70 88 167 144 209 l45 35 -74 -1 c-41 -1 -1031 -68 -2202 -149z"/>
<path d="M13950 10557 c60 -128 82 -234 79 -386 l-2 -126 44 3 c212 13 4128
283 4139 285 35 8 -174 24 -2130 157 -1130 77 -2081 143 -2112 146 l-58 6 40
-85z"/>
<path d="M1945 9409 c-266 -34 -496 -133 -648 -278 -121 -115 -179 -255 -156
-376 11 -62 31 -92 73 -112 59 -28 99 -12 147 58 85 126 283 228 492 254 57 7
58 7 53 -16 -3 -13 -13 -64 -22 -114 -57 -317 -178 -736 -282 -976 l-20 -45
-103 -17 c-181 -30 -226 -67 -217 -181 7 -82 41 -157 94 -205 80 -75 135 -67
280 41 28 21 54 38 58 38 3 0 35 -18 69 -40 94 -59 261 -136 352 -162 68 -19
103 -23 230 -22 165 0 231 12 340 64 241 115 334 415 207 665 -32 63 -138 174
-213 222 -33 21 -59 40 -59 43 0 3 30 39 66 80 191 217 280 432 255 615 -37
263 -233 420 -581 465 -91 11 -319 11 -415 -1z m444 -496 c80 -50 109 -132 90
-257 -13 -84 -49 -189 -91 -267 l-31 -55 -124 0 c-119 1 -124 2 -118 21 29
106 125 569 125 605 0 14 101 -18 149 -47z m-250 -834 c205 -96 321 -182 365
-271 67 -134 4 -232 -138 -214 -102 14 -496 127 -496 143 0 3 13 27 30 52 39
61 104 202 126 274 10 31 20 57 22 57 2 0 43 -18 91 -41z"/>
<path d="M5941 9395 c-264 -50 -433 -184 -495 -394 -45 -152 7 -327 113 -381
57 -29 138 -27 182 3 19 13 32 30 30 38 -8 32 -13 219 -7 251 16 88 82 113
267 103 l126 -7 -19 -107 c-82 -467 -250 -1147 -313 -1271 -37 -74 -57 -90
-109 -90 -35 0 -54 7 -93 36 -26 20 -54 43 -60 52 -18 22 -77 3 -130 -42 -57
-50 -87 -123 -81 -201 7 -77 35 -131 94 -184 64 -56 130 -75 248 -69 72 3 103
10 146 31 60 28 131 91 178 156 l29 40 32 -39 c41 -52 136 -97 229 -110 296
-41 594 187 735 562 54 141 71 242 71 413 0 142 -2 166 -22 215 -47 119 -124
183 -238 198 -142 19 -270 -30 -400 -151 -72 -67 -77 -70 -71 -42 8 44 55 355
69 466 l13 95 155 -24 c121 -19 196 -25 345 -25 174 -1 195 1 250 21 123 46
201 120 231 218 18 61 18 98 -1 163 l-16 52 -92 -8 c-160 -14 -459 -6 -677 17
-263 28 -615 35 -719 15z m708 -1215 c58 -59 65 -213 16 -406 -49 -195 -130
-294 -228 -281 -21 3 -84 28 -139 56 -55 28 -107 51 -114 51 -18 0 -20 -6 25
123 21 61 55 171 76 244 36 128 38 132 81 162 71 52 144 81 201 81 44 0 56 -4
82 -30z"/>
<path d="M15598 9395 c-229 -56 -523 -295 -666 -543 -144 -248 -143 -461 3
-608 27 -27 77 -63 109 -78 73 -35 204 -59 270 -50 l48 6 -7 -33 c-8 -39 -12
-47 -89 -184 -81 -144 -110 -237 -104 -335 5 -91 33 -147 100 -204 84 -72 232
-99 323 -57 l41 18 114 533 115 534 122 204 c131 220 168 267 222 282 127 35
144 -145 51 -530 -28 -115 -36 -133 -99 -230 -106 -163 -118 -183 -170 -287
-61 -121 -81 -189 -81 -269 0 -90 25 -157 82 -219 57 -62 111 -87 190 -87 139
0 227 113 328 422 54 163 104 357 154 599 l35 164 67 100 c79 117 171 219 213
237 16 6 44 10 62 8 28 -2 37 -10 52 -39 16 -34 17 -42 3 -106 -15 -74 -33
-121 -206 -558 -141 -357 -160 -418 -167 -530 -8 -120 11 -189 66 -238 52 -47
100 -62 196 -61 179 1 385 95 579 263 l68 60 52 -53 c58 -59 101 -76 192 -76
76 0 158 38 237 109 l57 53 0 -55 c0 -118 23 -102 -278 -201 -292 -96 -355
-123 -407 -173 -57 -55 -70 -88 -70 -178 0 -66 5 -90 27 -138 81 -172 307
-289 527 -274 340 25 543 262 568 662 l6 100 56 33 c31 18 91 62 134 98 50 42
77 59 77 49 0 -27 40 -98 79 -138 57 -61 104 -81 187 -82 105 0 108 5 123 168
7 72 24 200 37 282 28 163 33 173 123 268 72 76 131 97 131 48 0 -11 -25 -93
-55 -183 -107 -319 -113 -457 -25 -549 80 -84 308 -95 324 -16 3 12 8 60 11
107 7 94 49 370 65 430 20 74 202 243 245 226 24 -9 18 -37 -45 -211 -78 -216
-103 -312 -103 -405 -1 -131 45 -198 153 -221 118 -25 246 26 431 171 99 78
244 229 309 322 58 83 94 169 85 208 -8 35 -43 68 -81 76 -28 5 -34 0 -108
-95 -139 -179 -295 -321 -352 -321 -53 0 -38 67 72 330 105 253 124 313 131
402 7 93 -10 148 -60 195 -64 61 -150 67 -249 17 -65 -33 -202 -168 -288 -284
-34 -47 -64 -87 -65 -88 -2 -2 6 25 17 60 26 84 23 204 -8 244 -41 56 -70 69
-147 69 -59 -1 -82 -6 -126 -29 -67 -35 -169 -137 -245 -247 -32 -46 -55 -75
-51 -64 39 105 56 236 35 289 -25 66 -140 74 -255 17 -86 -42 -191 -145 -229
-222 -35 -72 -41 -137 -23 -225 15 -68 14 -75 -5 -140 -18 -60 -30 -78 -87
-137 -58 -60 -176 -163 -207 -180 -8 -4 -9 8 -3 41 14 89 41 177 116 382 89
242 103 288 103 355 -1 132 -118 235 -270 235 -43 0 -66 -6 -91 -23 l-34 -23
-12 -133 c-15 -152 -37 -266 -83 -437 -30 -108 -37 -123 -75 -160 -51 -49
-124 -87 -162 -82 -75 8 -63 153 25 307 122 212 172 336 172 426 0 46 -4 60
-24 80 -28 27 -80 40 -138 32 -154 -21 -381 -243 -434 -426 -18 -60 -13 -150
12 -209 18 -45 8 -64 -100 -179 -97 -103 -199 -176 -269 -195 -45 -12 -50 -11
-63 7 -32 43 0 153 160 552 222 553 271 768 212 931 -61 170 -274 229 -472
132 -71 -35 -199 -161 -280 -277 l-51 -73 -6 103 c-13 224 -98 340 -264 362
-68 9 -163 -16 -229 -60 -72 -47 -173 -167 -281 -331 -11 -16 -11 -7 -6 46 19
172 1 262 -62 325 -68 69 -202 92 -337 60z m-44 -381 c12 -30 6 -100 -19 -219
-30 -145 -94 -386 -106 -399 -13 -15 -137 43 -179 83 -94 89 -68 237 70 409
90 110 214 177 234 126z m2587 -1982 c-20 -168 -44 -195 -152 -168 -75 19
-165 77 -192 124 -39 67 9 110 222 197 l126 52 3 -56 c2 -31 -2 -98 -7 -149z"/>
<path d="M11505 8731 c-33 -14 -42 -31 -86 -157 -72 -211 -107 -264 -171 -264
-26 0 -29 3 -25 23 36 145 -1 276 -89 313 -42 18 -115 18 -157 0 -47 -19 -112
-97 -128 -153 -31 -105 -6 -212 66 -291 27 -30 35 -47 30 -62 -4 -11 -44 -76
-89 -143 -45 -67 -85 -130 -89 -140 -4 -12 -17 -17 -44 -17 -62 0 -64 6 -32
100 40 121 63 260 55 342 -17 186 -117 291 -231 244 -21 -9 -39 -15 -39 -14
-11 29 -37 66 -59 82 -24 18 -43 21 -115 21 -77 0 -94 -4 -152 -32 -160 -78
-315 -275 -390 -497 -33 -95 -60 -219 -60 -270 0 -29 -9 -42 -60 -90 -61 -56
-96 -73 -126 -62 -20 8 -17 39 44 396 35 212 46 301 46 391 1 111 0 117 -27
152 -42 55 -114 74 -225 59 -246 -33 -381 -194 -541 -642 -71 -200 -110 -297
-135 -339 l-21 -36 -3 39 c-3 37 32 309 44 340 4 10 -6 27 -24 46 -26 25 -38
30 -79 30 -26 0 -66 -9 -88 -19 -80 -36 -167 -159 -197 -277 -14 -57 -29 -76
-111 -140 l-60 -48 7 52 c10 77 47 198 127 414 86 234 104 310 88 373 -14 55
-75 128 -133 157 -58 30 -169 36 -216 11 -42 -22 -46 -33 -60 -193 -11 -134
-32 -239 -81 -417 -29 -104 -35 -116 -76 -153 -71 -67 -161 -98 -191 -68 -17
17 -15 114 3 174 8 27 44 101 80 164 75 133 119 234 142 326 14 56 14 68 2
101 -17 46 -65 73 -126 73 -164 0 -415 -233 -467 -434 -16 -61 -11 -148 13
-209 9 -23 7 -42 -9 -95 -31 -99 -37 -216 -15 -282 36 -110 129 -167 257 -158
81 5 143 35 219 106 l60 55 -3 -84 -3 -84 -275 -91 c-296 -98 -347 -119 -398
-168 -161 -151 -66 -422 189 -541 224 -103 520 -52 677 119 105 114 164 271
181 481 4 58 10 107 12 109 2 2 41 29 87 59 l82 55 16 -31 c59 -116 190 -164
334 -121 43 13 67 29 120 82 98 100 160 226 281 580 61 177 85 234 122 284 38
52 46 41 26 -35 -34 -132 -97 -431 -115 -542 -45 -295 26 -404 256 -393 77 4
98 9 162 41 40 20 108 66 151 102 42 36 77 61 77 56 0 -21 83 -112 123 -135
24 -15 74 -33 111 -43 92 -22 199 -7 305 43 61 29 94 55 170 131 l93 94 35
-12 c61 -20 155 -6 238 35 135 66 265 236 265 345 0 29 9 59 25 87 24 41 28
43 58 36 17 -4 49 -7 70 -7 45 1 47 11 -32 -163 -111 -243 -142 -378 -111
-486 15 -54 70 -110 129 -131 143 -50 325 13 528 184 40 34 76 61 81 61 4 0
15 -23 25 -51 10 -28 37 -71 59 -95 52 -57 108 -78 193 -72 99 6 107 18 116
169 4 66 16 171 25 232 l18 112 26 -110 c82 -344 164 -457 329 -456 94 0 201
52 320 154 l55 47 13 -51 c23 -90 66 -128 160 -144 53 -8 141 16 204 56 59 37
154 137 205 213 l39 60 5 -95 c7 -141 39 -178 158 -186 119 -9 237 45 401 182
199 165 336 357 329 457 -2 35 -9 46 -37 65 -56 38 -72 32 -137 -54 -76 -102
-198 -229 -251 -260 -25 -14 -53 -23 -70 -21 -26 3 -28 6 -27 43 1 25 36 128
97 280 135 340 150 409 104 496 -27 50 -101 111 -157 128 -78 23 -174 9 -207
-31 -6 -7 -16 -65 -23 -128 -24 -238 -111 -591 -159 -644 -37 -41 -140 -106
-167 -106 -57 0 -67 56 -34 202 15 67 32 109 75 183 106 179 165 328 165 412
0 33 -7 50 -29 75 -28 32 -32 33 -103 33 -62 -1 -82 -6 -136 -33 -78 -41 -198
-154 -258 -243 -77 -116 -100 -213 -73 -314 20 -77 20 -90 0 -139 -27 -61
-112 -170 -164 -207 -28 -20 -52 -29 -78 -29 -63 0 -106 48 -185 204 l-67 133
48 44 c88 81 219 182 333 257 123 80 151 116 152 192 0 49 -38 120 -80 148
-44 30 -113 27 -185 -8 -65 -32 -297 -263 -429 -428 -55 -67 -100 -121 -102
-119 -2 2 10 44 26 93 69 204 87 381 43 425 -36 37 -101 36 -179 0 -101 -47
-226 -177 -285 -295 -40 -81 -43 -95 -43 -160 1 -39 7 -90 13 -114 11 -38 9
-52 -9 -106 -17 -53 -33 -76 -98 -141 -124 -125 -211 -174 -247 -139 -14 15
-16 28 -12 73 9 82 45 179 151 405 130 277 142 325 110 419 -39 116 -205 224
-289 188z m-1126 -421 c-29 -109 -35 -273 -15 -388 16 -91 16 -93 -5 -134 -50
-98 -103 -141 -166 -136 -155 13 -102 406 85 637 32 39 111 105 118 98 2 -1
-6 -36 -17 -77z m-2632 -1207 c-7 -141 -17 -187 -49 -228 -19 -24 -25 -26 -67
-20 -65 9 -161 56 -205 100 -50 49 -48 94 5 137 35 28 279 137 308 138 12 0
13 -22 8 -127z"/>
<path d="M3525 8622 c-79 -27 -142 -69 -227 -150 -214 -205 -335 -525 -299
-795 33 -249 139 -361 355 -375 98 -6 167 9 273 58 83 39 216 124 248 160 25
28 32 25 53 -22 31 -68 87 -124 158 -159 56 -28 78 -33 162 -37 109 -5 179 9
297 59 216 92 492 348 558 517 34 86 11 151 -60 171 -31 9 -34 8 -77 -52 -131
-183 -356 -333 -518 -345 -114 -8 -154 24 -165 132 l-5 51 68 18 c92 25 239
95 294 142 109 91 160 203 160 350 0 139 -39 213 -137 262 -51 25 -69 28 -153
28 -87 0 -101 -3 -162 -33 -124 -61 -284 -234 -366 -397 -42 -85 -83 -214 -96
-305 l-11 -79 -60 -47 c-86 -67 -176 -107 -253 -112 -82 -6 -117 10 -144 62
-19 36 -22 57 -21 161 1 148 22 257 69 352 38 79 65 103 91 81 13 -10 14 -26
8 -93 -14 -152 -14 -148 25 -167 115 -58 274 33 327 187 10 29 17 81 17 125 0
130 -56 217 -163 255 -59 20 -183 19 -246 -3z m921 -290 c56 -37 37 -177 -31
-230 -30 -24 -101 -49 -111 -39 -11 10 24 143 50 196 14 27 36 57 48 65 25 18
29 19 44 8z"/>
<path d="M9490 6439 c-1431 -13 -2503 -44 -2857 -84 -123 -14 -143 -19 -143
-35 0 -41 594 -72 1930 -102 758 -17 4328 -17 5085 0 1342 30 1935 61 1935
102 0 16 -20 21 -143 35 -611 69 -3257 107 -5807 84z"/>
<path d="M760 6232 l0 -109 55 -37 c72 -50 195 -173 251 -252 l46 -64 103 0
c57 0 106 4 109 9 8 12 -100 172 -174 258 -33 39 -94 99 -133 133 -78 67 -227
170 -246 170 -7 0 -11 -34 -11 -108z"/>
<path d="M21052 6278 c-119 -82 -224 -178 -307 -281 -61 -75 -145 -203 -145
-220 0 -4 49 -7 108 -7 l109 0 39 57 c49 72 183 206 257 258 l57 40 0 108 c0
82 -3 107 -13 107 -7 0 -54 -28 -105 -62z"/>
<path d="M1293 5283 c3 -21 9 -89 13 -150 l7 -113 9652 0 9652 0 7 128 c3 70
9 137 12 150 6 22 5 22 -95 22 -100 0 -101 0 -101 -24 0 -13 -3 -38 -6 -55
l-6 -31 -9464 0 -9464 0 -5 23 c-2 12 -6 36 -7 52 l-3 30 -99 3 -99 3 6 -38z"/>
</g>
</svg>
